:SAMPLES-PER-SECOND 30
:FULLY-SPECIFIED
:DEGREES
951
root  -57.3447 34.5101 8.75129 -15.5137 -79.0566 21.3032
RightUpLeg  -50.0998 -24.124 1.81848
RightLeg  60.0737 3.0623 5.22696
RightFoot  -14.508 -0.346432 -8.94332
RightToes  -1.33073e-015 0 -3.6325e-017
Spine  82.0856 -16.3921 13.7285
Spine1  -2.63223 -5.67473 1.38249
HEad  -46.6121 -10.9491 2.82867
LeftShoulder1  1.83202 -7.78818 -8.7966
LeftArm  -43.5575 -77.1936 -23.5444
LeftForeArm  1.47782 -16.5601 -0.54527
LeftHand  -0.170766 3.1216 7.5895
RightShoulder  0.516705 8.24073 -4.62029
RightArm  -56.6939 61.6323 -16.9991
RightForeArm  -30.1235 -3.66777 -3.15339
RightHand  -0.695714 10.135 -5.59844
LeftUpLeg  -50.8717 5.82533 -5.01657
LeftLeg  48.4282 -5.0866 -5.70205
LeftFoot  -2.32913 -0.341342 4.51386
LeftToes  -1.93726e-010 2.42366e-011 2.16268e-013
952
root  -57.4758 34.0622 8.88626 -13.0603 -79.0061 19.1581
RightUpLeg  -51.6414 -24.606 2.26132
RightLeg  62.5775 2.84971 5.38931
RightFoot  -15.7651 -0.468025 -9.33961
RightToes  -1.33073e-015 0 -3.6325e-017
Spine  84.5749 -16.8882 13.8362
Spine1  -5.11669 -5.57735 1.70619
HEad  -46.6128 -11.1287 2.87625
LeftShoulder1  1.80484 -8.29177 -7.75749
LeftArm  -55.733 -78.1666 -13.5172
LeftForeArm  1.5594 -17.2049 -0.31351
LeftHand  -0.341779 1.2817 9.51354
RightShoulder  0.586218 7.48916 -3.56105
RightArm  -64.9189 62.1218 -29.1678
RightForeArm  -30.7951 -4.69662 -2.6317
RightHand  -0.639483 10.6099 -5.01863
LeftUpLeg  -52.9176 5.93708 -5.017
LeftLeg  51.6372 -4.88081 -6.14239
LeftFoot  -3.71123 -0.317923 5.09642
LeftToes  -1.93726e-010 2.42366e-011 2.16268e-013
953
root  -57.5686 33.674 8.99869 -11.8638 -78.9313 18.2333
RightUpLeg  -53.0442 -24.8667 2.38826
RightLeg  64.8203 2.60702 5.41716
RightFoot  -16.514 -0.542564 -9.53089
RightToes  -1.33073e-015 0 -3.6325e-017
Spine  87.0165 -17.1125 13.7541
Spine1  -8.26729 -5.29546 1.91778
HEad  -44.8448 -11.4882 2.75778
LeftShoulder1  1.76563 -8.7097 -6.80976
LeftArm  -63.1986 -78.6597 -8.84743
LeftForeArm  2.72623 -17.8337 -0.313029
LeftHand  -0.113656 3.72849 7.0876
RightShoulder  0.660128 7.00042 -2.46476
RightArm  -69.1811 61.845 -36.9662
RightForeArm  -30.2346 -4.77824 -1.78578
RightHand  -0.348497 8.97843 -3.1957
LeftUpLeg  -54.5379 5.81129 -5.09542
LeftLeg  54.1698 -4.61565 -6.36853
LeftFoot  -5.00927 -0.270177 5.42316
LeftToes  -1.93726e-010 2.42366e-011 2.16268e-013
954
root  -57.6707 33.2426 9.10956 -9.49036 -78.6866 16.0951
RightUpLeg  -54.5605 -25.0183 2.63574
RightLeg  67.282 2.26638 5.23852
RightFoot  -17.3926 -0.607313 -9.24108
RightToes  -1.33073e-015 0 -3.6325e-017
Spine  88.2794 -17.6968 13.8208
Spine1  -9.56663 -5.51909 1.79542
HEad  -44.8025 -11.1856 3.25305
LeftShoulder1  1.71218 -9.08887 -5.8404
LeftArm  -74.625 -78.5257 0.334769
LeftForeArm  2.86459 -18.422 -0.371011
LeftHand  -0.0705324 4.34928 6.22756
RightShoulder  0.68838 6.20937 -1.54988
RightArm  -74.6868 61.9352 -45.3409
RightForeArm  -29.876 -4.95622 -0.842606
RightHand  -0.0982584 8.37727 -1.21717
LeftUpLeg  -56.3298 5.37849 -4.92052
LeftLeg  56.9303 -4.20477 -6.42724
LeftFoot  -6.09806 -0.232738 5.88933
LeftToes  -1.93726e-010 2.42366e-011 2.16268e-013
955
root  -57.7815 32.7961 9.24694 -6.85533 -78.4349 13.877
RightUpLeg  -56.3177 -25.4056 3.07892
RightLeg  69.7255 1.95944 5.06929
RightFoot  -18.2481 -0.689188 -9.35431
RightToes  -1.33073e-015 0 -3.6325e-017
Spine  88.574 -17.969 14.252
Spine1  -10.0775 -5.55527 2.35734
HEad  -44.5115 -11.4913 2.86365
LeftShoulder1  1.64784 -9.35508 -4.95946
LeftArm  -80.9925 -78.0684 8.81003
LeftForeArm  -3.28291 -18.3845 -0.672263
LeftHand  -0.160473 3.36684 7.53264
RightShoulder  0.715048 5.58894 -0.66012
RightArm  -78.8787 61.3798 -52.7384
RightForeArm  -30.718 -5.11773 0.24029
RightHand  -0.0169501 8.27205 -0.527486
LeftUpLeg  -58.3999 5.21857 -4.97626
LeftLeg  59.7276 -3.87079 -6.60468
LeftFoot  -6.89305 -0.220964 6.74677
LeftToes  -1.93726e-010 2.42366e-011 2.16268e-013
956
root  -57.8438 32.4414 9.3501 -6.50018 -78.4313 13.5193
RightUpLeg  -57.4785 -25.4681 3.04766
RightLeg  71.7923 1.70278 4.87759
RightFoot  -18.4967 -0.70716 -9.29106
RightToes  -1.33073e-015 0 -3.6325e-017
Spine  89.4698 -18.173 14.1344
Spine1  -11.0459 -5.59286 2.25264
HEad  -44.0722 -11.0811 2.81888
LeftShoulder1  1.62672 -9.72902 -4.37041
LeftArm  -82.8918 -77.2639 8.68692
LeftForeArm  -3.33672 -19.6641 -1.95955
LeftHand  -0.369187 1.25801 10.4516
RightShoulder  0.740756 4.99717 0.314686
RightArm  -82.4446 61.4139 -57.3115
RightForeArm  -32.3503 -5.18125 0.921633
RightHand  -0.00965459 8.45677 -0.452685
LeftUpLeg  -59.6079 5.57255 -5.33369
LeftLeg  61.8048 -3.70502 -6.89101
LeftFoot  -7.62556 -0.185523 7.11604
LeftToes  -1.93726e-010 2.42366e-011 2.16268e-013
957
root  -57.9087 32.121 9.4542 -5.31978 -78.4737 12.5588
RightUpLeg  -58.8706 -25.6304 3.30381
RightLeg  73.7143 1.53019 4.88977
RightFoot  -18.5732 -0.66652 -8.54346
RightToes  -1.33073e-015 0 -3.6325e-017
Spine  90.0471 -18.478 14.1894
Spine1  -11.8288 -5.57356 1.71556
HEad  -43.7878 -10.9255 2.95294
LeftShoulder1  1.59564 -10.0482 -3.78192
LeftArm  -85.2919 -76.6102 9.29698
LeftForeArm  -0.481567 -20.2775 -2.41454
LeftHand  -0.151138 3.48366 8.21337
RightShoulder  0.761038 4.39483 1.36151
RightArm  -86.1916 61.3164 -60.5742
RightForeArm  -34.024 -5.13606 1.00074
RightHand  0.184032 7.88089 1.22689
LeftUpLeg  -60.9465 6.06749 -5.63854
LeftLeg  63.6706 -3.49808 -7.05597
LeftFoot  -8.25961 -0.149857 7.4144
LeftToes  -1.93726e-010 2.42366e-011 2.16268e-013
958
root  -57.8959 31.9314 9.58521 -4.26888 -78.7837 10.2223
RightUpLeg  -58.0659 -25.8084 3.10212
RightLeg  74.7763 1.4873 5.10716
RightFoot  -18.6213 -0.659624 -8.37444
RightToes  -1.33073e-015 0 -3.6325e-017
Spine  91.456 -18.5239 14.3378
Spine1  -11.87 -4.98485 1.99215
HEad  -43.5912 -11.2934 2.65125
LeftShoulder1  1.59195 -10.2546 -3.55178
LeftArm  -87.4676 -76.7219 6.14568
LeftForeArm  2.13142 -21.2564 -3.16054
LeftHand  -0.0845814 4.08587 6.08176
RightShoulder  0.791833 4.0217 2.37446
RightArm  -87.4829 60.6168 -62.7523
RightForeArm  -37.7114 -5.07909 1.4426
RightHand  0.313285 7.98204 2.33372
LeftUpLeg  -60.499 6.80378 -5.51794
LeftLeg  65.0913 -3.34705 -7.19616
LeftFoot  -8.41458 -0.164367 8.39765
LeftToes  -1.93726e-010 2.42366e-011 2.16268e-013
